<svg xmlns="http://www.w3.org/2000/svg" xmlns:xlink="http://www.w3.org/1999/xlink" width="100%" height="100%" viewBox="0 0 1280 5677">
  <defs>
    <pattern id="pattern" preserveAspectRatio="xMidYMid slice" width="100%" height="100%" viewBox="0 0 361 300">
      <image width="361" height="300" xlink:href="http://unciatrails.com/wp-content/uploads/2021/02/Leh-Bike-Trip-1.png"></image>
    </pattern>
    <pattern id="pattern-2" preserveAspectRatio="xMidYMid slice" width="100%" height="100%" viewBox="0 0 348 300">
      <image width="348" height="300" xlink:href="http://unciatrails.com/wp-content/uploads/2021/02/Leh-Bike-Trip-2.png"></image>
    </pattern>
    <pattern id="pattern-3" preserveAspectRatio="xMidYMid slice" width="100%" height="100%" viewBox="0 0 372 300">
      <image width="372" height="300" xlink:href="http://unciatrails.com/wp-content/uploads/2021/02/Leh-Bike-Trip-3.png"></image>
    </pattern>
    <pattern id="pattern-4" preserveAspectRatio="xMidYMid slice" width="100%" height="100%" viewBox="0 0 372 300">
      <image width="372" height="300" xlink:href="http://unciatrails.com/wp-content/uploads/2021/02/Leh-Bike-Trip-4.png"></image>
    </pattern>
    <pattern id="pattern-5" preserveAspectRatio="xMidYMid slice" width="100%" height="100%" viewBox="0 0 372 300">
      <image width="372" height="300" xlink:href="http://unciatrails.com/wp-content/uploads/2021/02/Leh-Bike-Trip-5.png"></image>
    </pattern>
    <pattern id="pattern-6" preserveAspectRatio="xMidYMid slice" width="100%" height="100%" viewBox="0 0 372 300">
      <image width="372" height="300" xlink:href="http://unciatrails.com/wp-content/uploads/2021/02/Leh-Bike-Trip-6.png"></image>
    </pattern>
    <pattern id="pattern-7" preserveAspectRatio="xMidYMid slice" width="100%" height="100%" viewBox="0 0 372 300">
      <image width="372" height="300" xlink:href="http://unciatrails.com/wp-content/uploads/2021/02/Leh-Bike-Trip-7.png"></image>
    </pattern>
    <pattern id="pattern-8" preserveAspectRatio="xMidYMid slice" width="100%" height="100%" viewBox="0 0 372 300">
      <image width="372" height="300" xlink:href="http://unciatrails.com/wp-content/uploads/2021/02/Leh-Bike-Trip-8.png"></image>
    </pattern>
    <pattern id="pattern-9" preserveAspectRatio="xMidYMid slice" width="100%" height="100%" viewBox="0 0 372 300">
      <image width="372" height="300" xlink:href="http://unciatrails.com/wp-content/uploads/2021/02/Leh-Bike-Trip-9.png"></image>
    </pattern>
    <pattern id="pattern-10" preserveAspectRatio="xMidYMid slice" width="100%" height="100%" viewBox="0 0 372 300">
      <image width="372" height="300" xlink:href="http://unciatrails.com/wp-content/uploads/2021/02/Leh-Bike-Trip-10.png"></image>
    </pattern>
    <pattern id="pattern-11" preserveAspectRatio="xMidYMid slice" width="100%" height="100%" viewBox="0 0 372 300">
      <image width="372" height="300" xlink:href="http://unciatrails.com/wp-content/uploads/2021/02/Leh-Bike-Trip-11.png"></image>
    </pattern>
    <clipPath id="clip-Leh_Ladakh_Itinerary">
      <rect width="1280" height="5677"></rect>
    </clipPath>
  </defs>
  <g id="Leh_Ladakh_Itinerary" data-name="Leh Ladakh Itinerary" clip-path="url(#clip-Leh_Ladakh_Itinerary)">
    <rect width="1280" height="5677" fill="#fff"></rect>
    <g id="Path_and_red_dots" data-name="Path and red dots" transform="translate(172.61 134.515)">
      <path id="Path_55" data-name="Path 55" d="M826.355,152.383s190.945,201.07-81.795,402.142S253.044,939.1,552.611,1175.1s296.8,400.324,102.331,502.807-513.434,66.3-52.184,413.9,103.026,553.933-25.74,595.9c-212.779,69.354-773.069,62.849-11.689,436.767,822.086,403.731-176.709,560.19-242.251,785.653s755.587,285.715,680.408,542.421C927.55,4711.835,542.825,4773.4,365.628,4881.912s-4.706,183.707,260.834,343.42-28.8,542.676-213.106,651.818-221.59,219.869-221.59,219.869" transform="translate(-178.307 -138.97)" fill="none" stroke="rgba(35,31,32,0.25)" stroke-miterlimit="10" stroke-width="2" stroke-dasharray="12 10"></path>
      <circle id="Day11" cx="7.626" cy="7.626" r="7.626" transform="translate(7.904 5943.232)" fill="#ff3c2a"></circle>
      <circle id="Day10" cx="7.626" cy="7.626" r="7.626" transform="translate(375.554 5043.063)" fill="#ff3c2a"></circle>
      <circle id="Day9" cx="7.626" cy="7.626" r="7.626" transform="translate(514.32 4588.301)" fill="#ff3c2a"></circle>
      <circle id="Day8" cx="7.626" cy="7.626" r="7.626" transform="translate(557.54 4056.485)" fill="#ff3c2a"></circle>
      <circle id="Day7" cx="7.626" cy="7.626" r="7.626" transform="translate(445.623 3532.281)" fill="#ff3c2a"></circle>
      <circle id="Day6" cx="7.626" cy="7.626" r="7.626" transform="translate(307.559 2941.173)" fill="#ff3c2a"></circle>
      <circle id="Day5" cx="7.626" cy="7.626" r="7.626" transform="translate(416.08 2532.182)" fill="#ff3c2a"></circle>
      <circle id="Day4" cx="7.626" cy="7.626" r="7.626" transform="translate(431.823 1953.35)" fill="#ff3c2a"></circle>
      <circle id="Day3" cx="7.626" cy="7.626" r="7.626" transform="translate(470.591 1531.778)" fill="#ff3c2a"></circle>
      <circle id="Day3-2" data-name="Day3" cx="7.626" cy="7.626" r="7.626" transform="translate(377.957 1035.653)" fill="#ff3c2a"></circle>
      <circle id="Day2" cx="7.626" cy="7.626" r="7.626" transform="translate(433.083 501.066)" fill="#ff3c2a"></circle>
      <circle id="Day1" cx="7.626" cy="7.626" r="7.626" transform="translate(632.796)" fill="#ff3c2a"></circle>
    </g>
    <g id="Group_18" data-name="Group 18" transform="translate(518 36)">
      <path id="Path_46" data-name="Path 46" d="M439.262,88.149a1.369,1.369,0,0,1-.477-.082,2.985,2.985,0,0,1-1.668-2.363c0-.861,1.184-1.037,1.887-1.294a23.71,23.71,0,0,1,3.229-1.3c.833-.167,1.5-.532,2.336-.691a37.158,37.158,0,0,0,3.62-1.087c.494-.148,1.023-.241,1.544-.354a6.945,6.945,0,0,0,1.451-.44c.273-.125.363-.252.36-.374-.008-.226-.333-.437-.388-.592a.8.8,0,0,1-.049-.29,8.385,8.385,0,0,1,.147-.83c.024-.234.043-.5.043-.779a3.551,3.551,0,0,0-.116-.975c-.071-.234-.26-.445-.26-.687a.451.451,0,0,1,.039-.185c.076-.179.682-.552.829-.73.368-.444.729-.9,1.1-1.344a19.259,19.259,0,0,0,1.615-2.782c.617-1.086,1.217-2.182,1.819-3.277,1.019-1.856,1.993-3.691,3.1-5.522q1.717-2.852,3.4-5.715,1.632-2.77,3.27-5.544c.507-.854,1.014-1.585,1.585-2.395a4.434,4.434,0,0,0,.455-1.251,7.659,7.659,0,0,1,.929-1.451,13.275,13.275,0,0,0,1.134-1.711,3.855,3.855,0,0,0,.049-.495.447.447,0,0,1,.236-.4,3.572,3.572,0,0,0,.545-.328,3.775,3.775,0,0,0,.384-.64c.259-.433.5-.882.773-1.3a1.546,1.546,0,0,0,.3-.794c0-.515-.562-.614-1-.614-1.677,0-5.527.994-8.264,1.656a25.456,25.456,0,0,1-5.986.872c-.722,0-1.325-.084-1.6-.88a3.188,3.188,0,0,1-.25-.972.721.721,0,0,1,.051-.281c.086-.21.326.015.326-.3,0-.384-.533-.9-.533-1.318,0-.142.077-.315.246-.315.112,0,.2.1.412.182a2.776,2.776,0,0,0,1.026.192A17.251,17.251,0,0,0,459.124,38c4.713-.65,9.281-2.11,14.008-2.73,2.591-.341,5.145-.891,7.744-1.193,1.164-.135,2.33-.227,3.493-.314s2.3-.166,3.446-.27c.875-.082,1.761-.247,2.645-.247a2.131,2.131,0,0,1,1.8.547c.221.2,1.062.793,1.086,1.113.038.482-.6.562-.6.786,0,.095.115.214.449.4a1.6,1.6,0,0,1,.642.529.832.832,0,0,1,.188.543,3.023,3.023,0,0,1-.146.657c-.213.814-.542,1.555-1.538,1.533-.949-.02-.943-.8-1.7-1.048a8.077,8.077,0,0,0-2.465-.335,37.882,37.882,0,0,0-4.291.4,13.1,13.1,0,0,1-1.443.135c-.245,0-.612-.044-.941-.036a1.119,1.119,0,0,0-.586.131c-.157.111-.206.2-.214.3s.03.21.03.348c0,.528-.2.547-.626.991-.667.685-.838,1.808-1.494,2.55a25.218,25.218,0,0,0-2.223,2.742c-1.01,1.521-1.374,1.641-2.424,3.144-1.255,1.8-2.5,3.59-3.651,5.411-.919,1.458-1.909,2.888-2.861,4.345-.211.323-.294.714-.505,1.037a12.389,12.389,0,0,0-.747,1.009c-.523.991-1.14,1.9-1.681,2.883-1.02,1.86-2.184,3.67-3.265,5.494-.533.9-1.082,1.8-1.625,2.7-.706,1.171-1.4,2.346-2.046,3.538a28.651,28.651,0,0,0-1.236,2.764,4.677,4.677,0,0,0-.469,1.277c0,.264.078.432.379.437.181,0,.414-.064.688-.091a79.662,79.662,0,0,1,8.026-.421,25.271,25.271,0,0,1,3.015.18,8.133,8.133,0,0,1,1.753.3,4.185,4.185,0,0,1,1.282.916c.35.313.478.5.478.613,0,.311-.883.17-.875.737,0,.392.477.464.753.571.683.27.8.479.9,1.3a7.172,7.172,0,0,1,.078.881,1.385,1.385,0,0,1-.87,1.413.739.739,0,0,1-.33.075c-.639-.027-.792-1.205-1.5-1.52a10.152,10.152,0,0,0-3.554-.6c-1.466,0-2.574.179-4.019.179-.921,0-1.841-.147-2.766-.147a24.146,24.146,0,0,0-3.618.236c-2.5.388-5,1.007-7.492,1.473-1.161.218-2.293.475-3.408.781-1.134.313-2.253.676-3.374,1.1a7.6,7.6,0,0,1-2.157.594Zm16.351-5.992a1.334,1.334,0,0,0,.479-.2,3.025,3.025,0,0,1,1.38-.433c.659-.03,1.307-.072,1.963-.153a10.541,10.541,0,0,1,1.257-.147c.283,0,.477.2.875.2.189,0,.387-.285.637-.285.223,0,.315.206.542.213a1.59,1.59,0,0,0,.524-.117,7.22,7.22,0,0,1,1.576-.352c.372,0,1.068.243,1.5.257.125,0,1.135-.015,1.135-.186,0-.308-1.048-.335-1.16-.367a2.762,2.762,0,0,0-.6-.082c-.337-.015-.689,0-1.014-.047a6.2,6.2,0,0,0-.833-.052c-1.112,0-2.192.245-3.319.245-.38,0-.762-.013-1.141-.006a4.634,4.634,0,0,0-1.6.256,4.013,4.013,0,0,1-1,.215c-.317.034-.639.053-.961.1-.417.06-.842.1-.842.337a.7.7,0,0,0,.6.6Zm.758-6.941a4.483,4.483,0,0,0,1.507-2.343c0-.17-.041-.237-.105-.237-.189,0-.576.593-.669.753a8.554,8.554,0,0,0-.832,1.745.088.088,0,0,0,.1.082Zm3.241-4.739a5.324,5.324,0,0,0,.567-.928,9.016,9.016,0,0,1,.4-1.251c.217-.388.542-.527.82-.839s.278-.627.451-1c.372-.791,1.131-1.347,1.526-2.134.694-1.379,1.409-2.727,2.195-4.082a33.461,33.461,0,0,1,2.862-4.674c.53-.64.753-1.392,1.245-2.062.3-.413,1.457-1.655,1.457-2.288,0-.7-.767.668-.9.867-.558.83-1.078,1.693-1.673,2.5a47.6,47.6,0,0,0-2.842,4.178c-.141.241-.317.47-.456.7-.166.282-.118.456-.234.732-.35.839-1.154,1.5-1.585,2.326a26.239,26.239,0,0,1-1.358,2.362c-.464.7-.927,1.418-1.373,2.127-.236.373-.295.79-.494,1.173a15.957,15.957,0,0,1-.953,1.419,9.534,9.534,0,0,0-.855,2.123c0,.134.013.215.095.215C458.889,71.944,459.429,70.763,459.611,70.478ZM460.293,66a6.334,6.334,0,0,0,.942-1.682A5.024,5.024,0,0,1,462,63.072a6.5,6.5,0,0,0,1.042-1.693c0-.2-.021-.269-.086-.269a1.338,1.338,0,0,0-.643.378c-.277.337-.587,1.268-.811,1.268-.208,0-.121-.347-.266-.367-.066-.009-.181.049-.4.239a2.8,2.8,0,0,0-.6,1.138c0,.089.039.143.134.143.227,0,.3.17.3.382a1.523,1.523,0,0,1-.139.559c-.129.291-.327.392-.571.729a6.563,6.563,0,0,0-.736,1.307c0,.078.013.125.083.125C459.53,67.011,460.188,66.112,460.293,66ZM463.3,58.73c.1,0,1.4-.951,1.4-1.557,0-.194-.086-.321-.207-.321a.323.323,0,0,0-.234.144c-.073.086-.227.449-.447.769-.251.365-.566.7-.579.872,0,.058.015.092.07.092Zm.116,1.844c.118,0,.7-.431.7-.669a.132.132,0,0,0-.129-.146,1.166,1.166,0,0,0-.732.678c0,.082.038.136.163.136Zm2.192-5.032c.348-.381.586-.908.9-1.326a7.731,7.731,0,0,0,1.074-1.792c0-.057-.02-.089-.072-.089-.2,0-1.026,1.184-1.172,1.4-.224.331-.318.714-.528,1.044-.178.278-.736.887-.736,1.049,0,.05.021.078.086.078C465.3,55.905,465.56,55.595,465.608,55.542Zm-.115-17.172a5.636,5.636,0,0,0,1.216-.244,2.166,2.166,0,0,1,.587-.069c.181,0,.357.012.536.012a2.2,2.2,0,0,0,.535-.057,12.733,12.733,0,0,1,2.713-.475c.182,0,.528.072,1,.072.046,0,.094,0,.141,0a4.454,4.454,0,0,0,1.026-.153c.387-.105,1.584-.6,1.584-1.031,0-.234-.159-.315-.391-.322a1.9,1.9,0,0,0-.36.031c-.689.111-1.376.313-2.062.432a30.853,30.853,0,0,0-3.666.839c-.336.1-3.2.481-3.2.8,0,.127.139.172.335.172Zm17.846-2.228c.677-.105,1.338-.141,2-.188a14.237,14.237,0,0,0,1.853-.224c.382-.077,1.36-.082,1.36-.689,0-.419-.547-.236-.8-.466-.369-.335-.226-.492-.659-.492-.06,0-.131,0-.219.008-.548.04-1.062.144-1.608.144-1.126,0-2.989.246-4.336.363-.7.06-1.386.172-2.078.272-.254.037-1.6.051-1.6.369,0,.194.45.246.974.246.638,0,1.387-.078,1.571-.08a3.581,3.581,0,0,0,.875-.13,3.37,3.37,0,0,1,.816-.114c.238,0,.331.142.606.4.2.181.545.173.545.359,0,.1-.071.224-.069.294,0,.037.022.059.086.059C482.746,36.271,483.267,36.152,483.339,36.142Z" transform="translate(-437.117 -31.653)"></path>
      <path id="Path_47" data-name="Path 47" d="M483.662,85.075a7.873,7.873,0,0,1-3.566-.769,6.452,6.452,0,0,1-2.892-2.933c-.561-1.123-1.309-2.171-1.828-3.308a6.8,6.8,0,0,1-.516-2.75,9.111,9.111,0,0,1,.056-1,22.521,22.521,0,0,1,1.99-7.128c1.167-2.389,2.181-4.861,3.466-7.186.677-1.225,1.335-2.447,2.011-3.658.644-1.149,1.3-2.292,2.016-3.418.265-.419,1.391-1.783,1.386-2.368,0-.266-.318-.388-.929-.388a15.772,15.772,0,0,0-2.047.231,24.109,24.109,0,0,1-3.078.264c-1.4,0-2.755-.256-3.492-1.337a3.051,3.051,0,0,1-.449-1.27c-.067-.373-.34-.676-.34-1.033,0-.322.1-.481.244-.472a.538.538,0,0,1,.341.255,1.82,1.82,0,0,0,1.43.787,7.819,7.819,0,0,0,1.043.063c.942,0,2.4.031,3.319.021q1.745-.025,3.492-.046c.425-.007.962.062,1.461.062a2.855,2.855,0,0,0,.732-.078c.579-.156.832-.74,1.173-1.215a25.2,25.2,0,0,0,1.724-2.572,10.113,10.113,0,0,0,.463-1.331c.212-.536.561-1.039.816-1.563a30.889,30.889,0,0,1,1.95-3.272c.3-.472.745-.978,1.149-1.5a5.53,5.53,0,0,0,.959-1.615,1.842,1.842,0,0,1,.55-1.076c.324-.335.456-.7.739-1.043a1.61,1.61,0,0,1,1.384-.528c.146,0,.3.008.449.008s.317-.009.459-.006c.234.008.416.054.416.241a2.432,2.432,0,0,1-.1.5c0,.067.033.1.169.1.185,0,.4-.154.6-.154a.366.366,0,0,1,.231.079c.2.155.11.372.2.55A6.678,6.678,0,0,1,502,36.036a2.258,2.258,0,0,1-.072.571,4.529,4.529,0,0,1-1.109,1.476,7.645,7.645,0,0,0-1.056,1.432c-.785,1.231-1.777,2.362-2.606,3.57-.4.584-.8,1.161-1.235,1.72a5.689,5.689,0,0,1-1.205,1.456c-.584.33-.74.316-.74.741,0,.271.354.516.983.516.516,0,2.464-.011,3.546.015.715.018,1.154.1,1.777.116.8.018,1.439.028,1.726.028.238,0,.487.039.884.039a1.452,1.452,0,0,0,.524-.078c.246-.1.173-.336.382-.336a2.513,2.513,0,0,1,1.34,1.225,2.715,2.715,0,0,1,.181.809,5.85,5.85,0,0,1,.244.993c0,.323-.148.835-.466.835a4.535,4.535,0,0,1-1.133-.321,2.5,2.5,0,0,0-.775-.1c-.334,0-.671.037-1,.037a2.358,2.358,0,0,1-.771-.109,1.908,1.908,0,0,0-.682-.194,2.868,2.868,0,0,0-.315.025,4.434,4.434,0,0,1-.6.058,2.5,2.5,0,0,1-.459-.046,3.971,3.971,0,0,0-.728-.07c-.114,0-.231,0-.359.013-.212.012-.482.1-.764.1a1.281,1.281,0,0,1-.165-.011,5.755,5.755,0,0,0-.822-.207c-.336,0-.524.112-.832.112-.042,0-.085,0-.133-.007a6.479,6.479,0,0,0-.777-.12c-.381,0-.906.144-1.367.144q-.066,0-.135,0c-.412-.026-.856-.217-1.282-.217s-.655.176-.89.752a3.988,3.988,0,0,1-.726,1.082,8.374,8.374,0,0,0-.741.916c-.155.236-.32.491-.492.745a6.128,6.128,0,0,1-.881,1.057c-.252.226-.324.169-.415.272a1.47,1.47,0,0,0-.189.359c-.083.2-.168.375-.259.55a7.131,7.131,0,0,1-.363.619c-.135.206-.4.5-.4.774,0,.16.385.117.366.3-.008.092-.083.188-.155.188-.09,0-.169-.2-.289-.2-.189,0-.471.356-.471.614,0,.114.012.238.019.376.007.18.026.3.025.4,0,.178-.083.237-.478.38-.594.215-.639.273-.794.606-.148.316-.136.76-.277,1-.109.189-.581.4-.581.616s.489.219.489.469a.84.84,0,0,1-.218.434c-.191.251-1.108.509-1.108.775s.223.278.223.481a5.193,5.193,0,0,1-1.014,1.617,7.863,7.863,0,0,0-1.012,1.707,1.1,1.1,0,0,0-.193.479c0,.246.642.227.642.7a7.528,7.528,0,0,1-.726,2.082.968.968,0,0,1-.555.471c-.212.1-.4.2-.4.472,0,.316.224.482.224.722a3.454,3.454,0,0,1-.1.689,30.427,30.427,0,0,0-.872,6.323,2.627,2.627,0,0,0,.483,1.765,2.143,2.143,0,0,0,1.587.5c.212,0,.414-.014.593-.031,1.943-.182,3.96-1.525,5.657-2.407a43.077,43.077,0,0,0,5.1-3.351c.386-.277,3.083-2.642,3.454-2.642.065,0,.077.112.073.17-.014.289-.655.8-1.277,1.287-.6.462-1.176.895-1.176,1.073,0,.225.505.154.505.389s-.356.593-.509.775a6.763,6.763,0,0,1-1.941,1.561,6.639,6.639,0,0,0-1.792,1.346.632.632,0,0,0-.155.291c0,.111.034.156.144.155a1.663,1.663,0,0,0,.675-.266c.362-.221,3-1.893,3.708-1.893a.1.1,0,0,1,.11.1c0,.44-1.965,2.038-2.222,2.248a5.525,5.525,0,0,0-.941.94,7.568,7.568,0,0,1-1.837,1.574,8.845,8.845,0,0,1-1.578.9,3.663,3.663,0,0,0-.961.714,5.98,5.98,0,0,1-3.42.788ZM476.871,72.03a18.348,18.348,0,0,0,.711-2.288c.589-1.687,1.313-3.4,2.054-5.03.7-1.545,1.437-3.1,2.236-4.608a44.664,44.664,0,0,1,2.514-4.23c1.064-1.567,1.856-3.325,3-4.839a1.182,1.182,0,0,0,.26-.594c0-.094-.04-.156-.14-.156a.833.833,0,0,0-.378.147c-.244.146-.5.771-.666,1.028-.3.452-.6.9-.907,1.353q-1.131,1.7-2.19,3.469c-1.049,1.757-2.028,3.561-2.9,5.4-.569,1.19-1.289,2.8-1.973,4.416-.607,1.434-1.185,2.865-1.6,3.993a9.553,9.553,0,0,0-.617,2.108c0,.076.054.291.174.291C476.669,72.489,476.811,72.144,476.871,72.03Zm1.664-1.533c.339-.948.694-1.88,1.089-2.807.83-1.941,1.685-3.834,2.7-5.686,1.058-1.927,2.133-3.843,3.245-5.739.5-.851,1.044-1.673,1.54-2.526a14.134,14.134,0,0,1,.714-1.222c.169-.234.527-.6.527-.774,0-.094-.03-.122-.079-.122-.224,0-1.071,1.223-1.215,1.411-.657.865-1.17,1.877-1.738,2.8s-1.1,1.859-1.619,2.8c-.447.807-.889,1.619-1.34,2.429s-.993,1.9-1.548,3.085-1.126,2.469-1.617,3.635a22.212,22.212,0,0,0-1.421,3.911c0,.142.039.2.082.192C478.045,71.866,478.5,70.6,478.535,70.5Zm8.245-21.321c0-.051-.194-.1-.768-.1-.468,0-.785.077-.785.157,0,.1.349.146.717.142C486.351,49.37,486.781,49.305,486.781,49.176Zm2.4,1.245c0-.05-.021-.079-.07-.079-.186,0-.652.519-.652.736,0,.079.024.131.123.131C488.808,51.21,489.187,50.638,489.184,50.422Zm1.6-4.4c.26-.35.856-.9.856-1.405a.618.618,0,0,0-.013-.124c-.519.135-1.057,1.3-1.38,1.743-.169.234-.772.767-.772,1.1,0,.095.036.215.139.215C490.089,47.559,490.524,46.381,490.785,46.026Zm11.084,3.64c.256,0,.6-.088.881-.088.1,0,.335.064.483.073.094.007.336-.041.336-.127,0-.226-1.522-.31-1.77-.317-.99-.025-2.57-.072-4.071-.116-1.952-.058-3.774-.112-4.007-.112-.109,0-.218,0-.324.006-.292.014-.77.064-.77.2,0,.056.077.124.271.211a.853.853,0,0,0,.357.071c.242,0,.483-.073.721-.077.352,0,.658.071,1.012.092.947.056,1.872-.079,2.8-.079,1,0,1.922.11,2.875.173.4.026.8.09,1.2.09Z" transform="translate(-430.18 -31.9)"></path>
      <path id="Path_48" data-name="Path 48" d="M496.622,84.225a3.2,3.2,0,0,1-1.116-.188,5.486,5.486,0,0,1-2.782-2.2c-.282-.437-.656-.791-.939-1.212a2.439,2.439,0,0,1-.3-1.236c0-.408.081-.835.081-.934a11.893,11.893,0,0,1-.33-1.756,1.634,1.634,0,0,1,.328-1.086c.144-.172.429-.223.453-.5.017-.207-.23-.308-.23-.7a6.293,6.293,0,0,1,.482-1.637,5.479,5.479,0,0,1,.51-1.6c.137-.18.224-.23.27-.23.073,0,.1.049.1.121,0,.148-.1.366-.1.487,0,.045.012.1.046.1.291,0,.579-.748.658-.959a1.194,1.194,0,0,0,.143-.438c0-.251-.4-.147-.389-.53.007-.259.32-.434.43-.64.1-.188.116-.4.221-.592a12.86,12.86,0,0,1,1.067-1.367,1.247,1.247,0,0,1,.53-.329.536.536,0,0,0,.349-.555.394.394,0,0,0-.05-.236c-.167-.208-.513-.16-.513-.394a2.527,2.527,0,0,1,.081-.259,1.658,1.658,0,0,1,.052-.542c.161-.471.587-.734.7-1.152.073-.271-.032-.2.16-.466s.408-.524.582-.819a19.045,19.045,0,0,0,.87-1.7,13.711,13.711,0,0,1,.991-1.539c.341-.541.71-1.08,1.12-1.611a7.631,7.631,0,0,1,1.048-1.432,2.527,2.527,0,0,1,1.28-.492c.336,0,.341.336.565.336.179,0,.4-.175.546-.175.206,0,.359.2.516.334a.535.535,0,0,0,.342.129.977.977,0,0,1,.419.069,2.032,2.032,0,0,1,1.024,1.476,5.506,5.506,0,0,1,.329,1.436,1.237,1.237,0,0,1-.148.617c-.137.245-.5.442-.687.648-.256.277-.453.607-.715.878a13.282,13.282,0,0,0-1.241,1.525c-.507.695-1.067,1.354-1.6,2.03a15.014,15.014,0,0,0-1.4,2.028c-.876,1.59-1.811,3.077-2.675,4.6a29.042,29.042,0,0,0-2.133,4.495,2.075,2.075,0,0,0-.186.753c0,.27.227.374.227.633,0,.474-.555.767-.555,1.282a1.372,1.372,0,0,0,.056.372,1.1,1.1,0,0,0,1.21.787A7.97,7.97,0,0,0,499.182,79c.93-.429,1.893-.765,2.835-1.164a12.307,12.307,0,0,0,2.484-1.61,29.725,29.725,0,0,1,2.639-1.61c.17-.1.787-.581,1.4-.947a2.573,2.573,0,0,1,1.086-.438c.1,0,.129.06.116.1-.053.161-.835.6-.835.9a.43.43,0,0,0,.4.324c.279,0,1.258-.655,1.662-.655.156,0,.2.1.2.269a3.715,3.715,0,0,1-1.276,1.782,25.417,25.417,0,0,1-2.268,2.029c-.962.653-1.731,1.512-2.687,2.2-.565.406-1.1.788-1.668,1.139a13.393,13.393,0,0,1-1.612.869,10.681,10.681,0,0,0-1.8.807c-.189.136-.247.315-.418.47-.294.269-.466.221-.8.243-.6.039-.779.424-1.306.464-.244.019-.481.053-.716.053Zm-3.249-7.44a9.76,9.76,0,0,0,.246-1.507c0-.24-.166-.462-.341-.462-.322,0-.537.839-.537,1.168,0,.111.022.433.034.756.007.178.152.4.308.407C493.185,77.152,493.3,77.055,493.372,76.785Zm.948-2.945a.564.564,0,0,0-.509-.6.492.492,0,0,0-.458.516c0,.246.116.5.365.509S494.321,74.033,494.321,73.84Zm-.206-1.5c.115,0,.31-.15.614-.724.058-.114.026-.232.105-.339.094-.122.288-.124.374-.243a4.139,4.139,0,0,0,.33-1.122,4.4,4.4,0,0,0,.326-.84.144.144,0,0,0-.118-.149c-.279,0-.822,1.242-.9,1.434a8.2,8.2,0,0,0-.877,1.817c0,.046.041.165.143.165Zm2.475-4.618c0-.056-.04-.172-.107-.172-.241,0-.616.689-.616.865,0,.075.02.121.084.121C496.185,68.539,496.59,67.926,496.59,67.724Zm.491-.991c0-.073-.02-.13-.082-.13-.146,0-.263.188-.26.323a.123.123,0,0,0,.133.135C496.978,67.062,497.081,66.846,497.081,66.734Zm11.524-18.107A2.9,2.9,0,0,1,507.284,48c-.419-.444-1.209-1.238-1.209-1.754,0-.419.359-.8.489-1.21a12.249,12.249,0,0,1,1.6-3.355,3.665,3.665,0,0,1,2.878-1.778,3.562,3.562,0,0,1,2.64,1.015,10.47,10.47,0,0,1,.756,1.2,2.323,2.323,0,0,1,.547,1.385,2.263,2.263,0,0,1-.8,1.572c-.285.341-.417.794-.771,1.062-.243.181-.554.239-.818.457s-.489.457-.755.65c-.483.347-1,.574-1.479.948a1.883,1.883,0,0,1-1.158.563A1.686,1.686,0,0,1,508.605,48.626Z" transform="translate(-427.171 -30.429)"></path>
      <path id="Path_49" data-name="Path 49" d="M506.709,81.624c-.3,0-.255-.243-.463-.355-.229-.124-.431-.063-.635-.259-.188-.18-.226-.653-.3-1.056-.065-.353-.159-.652-.407-.652-.192,0-.3.369-.494.369-.281,0-.366-1.063-.408-1.268a5.178,5.178,0,0,1-.147-.98,1.465,1.465,0,0,1,.107-.567,12.959,12.959,0,0,1,.977-1.578,6.831,6.831,0,0,1,1.245-1.444,7.11,7.11,0,0,0,1.128-1.67c.367-.642.659-1.315,1.07-1.931.138-.21.411-.488.411-.722a4.61,4.61,0,0,0-.084-.453.419.419,0,0,1,.04-.2c.229-.5.842-.543.842-.778,0-.077-.123-.168-.123-.27a1.146,1.146,0,0,1,.036-.245,5.273,5.273,0,0,1,.586-1.084c.138-.275,1.527-3.175,1.924-3.175.213,0,.167.156.4.156.307,0,.526-.728.659-.971.43-.785.817-1.61,1.177-2.429.268-.612.457-1.235.69-1.859.244-.65.617-1.244.876-1.889.47-1.171.708-2.439,1.215-3.6a2.309,2.309,0,0,1,.8-1.029,1.126,1.126,0,0,1,.586-.26c.179,0,.15.35.5.35.143,0,.232-.115.408-.118a1.722,1.722,0,0,1,.772.251,2.373,2.373,0,0,1,1.178,1.178,3.887,3.887,0,0,1,.586,2.04,5.5,5.5,0,0,1-.675,2.46,23.936,23.936,0,0,1-1.7,2.668c-.787,1.148-1.307,2.452-2.117,3.59-.149.21-.941,1.235-.941,1.69,0,.135.07.221.244.221.516,0,1.243-1.153,1.7-1.306.485-.166.785-.063,1.206-.442.447-.4.8-.862,1.283-1.231.243-.187.728-.488.755-.84.008-.124-.219-.179-.213-.3.007-.189.227-.35.353-.466.327-.3,1.219-1.3,1.67-1.3.214,0,.156.286.282.286.141,0,.217-.095.322-.163a6.524,6.524,0,0,0,.912-.778c.288-.3.23-.674.572-.93a5.8,5.8,0,0,1,1.257-.464,4.461,4.461,0,0,0,1.168-.949,4.508,4.508,0,0,1,1.488-.8,3.612,3.612,0,0,1,1.226-.3,1.231,1.231,0,0,1,.414.058.4.4,0,0,1,.255.257c.046.114.069.215.212.215a.962.962,0,0,1,.291,0c.488.142.393.477.783.69.18.1.428-.014.6.129a2.946,2.946,0,0,1,.353.574,1.579,1.579,0,0,1,.208.837,8.984,8.984,0,0,1-.936,3.021c-1.055,2.521-2.312,4.9-3.434,7.407a28.934,28.934,0,0,0-1.468,3.987,20,20,0,0,0-.5,2.133,7.965,7.965,0,0,0-.166,1.261c0,.46.092.711.5.71a9.167,9.167,0,0,0,2.523-.932A21.132,21.132,0,0,0,534,74.256c1.274-.832,2.494-1.753,3.723-2.651.511-.374,1.14-.733,1.727-1.129a5.836,5.836,0,0,0,1.377-1.2c.393-.513.63-1.071,1.073-1.622.065-.082.238-.3.38-.31a.142.142,0,0,1,.146.152c0,.176-.282.417-.282.608a.162.162,0,0,0,.149.167c.128-.006.259-.218.349-.225.046,0,.118.049.116.215,0,.243-.385.489-.385.863,0,.152.314.174.314.371,0,.116-.177.3-.246.391-.26.352-1.2.856-1.222,1.308a.51.51,0,0,0,.514.555.525.525,0,0,0,.314-.1c.133-.1.292-.516.452-.516a.2.2,0,0,1,.144.189,2.774,2.774,0,0,1-.4.954,4.674,4.674,0,0,1-.938,1.387c-.965.935-2.036,1.759-3.083,2.6a22.68,22.68,0,0,0-2.883,2.653,7.6,7.6,0,0,1-3.3,2.092,7.964,7.964,0,0,1-2.507.586,3.261,3.261,0,0,1-1.271-.252c-.436-.18-.962-.366-1.458-.6a3.186,3.186,0,0,1-1.5-1.234,6.548,6.548,0,0,0-.3-.716c-.175-.25-.4-.316-.621-.5a3,3,0,0,1-.851-1.55,17.313,17.313,0,0,1-.38-2.012,16.729,16.729,0,0,1-.208-1.918,11.3,11.3,0,0,1,.658-2.887c.2-.611.426-1.231.643-1.8.345-.894.672-1.65.855-2.009.555-1.09,1.113-2.176,1.628-3.287.15-.327,1.165-1.372,1.187-1.924a.283.283,0,0,0-.3-.311,4.79,4.79,0,0,0-2.07,1.239c-1.007.838-1.989,1.823-2.176,2q-3.1,2.866-6,5.951-1.392,1.481-2.743,3-1.458,1.644-2.858,3.342c-.786.955-1.513,1.94-2.263,2.922a2.3,2.3,0,0,1-1.1.889,1.173,1.173,0,0,0-.585.315,1.889,1.889,0,0,0-.211.593,1.229,1.229,0,0,1-.9.778Zm.123-5.226c.176,0,.381-.31.515-.524.376-.608.71-1.244,1.09-1.853.875-1.409,1.626-2.89,2.488-4.307.663-1.088,1.235-2.223,1.874-3.323.265-.455,1.11-1.5,1.11-2.085,0-.234-.062-.321-.142-.326s-.188.077-.266.174c-.309.382-.61,1.108-.891,1.514-.716,1.036-1.345,2.1-1.979,3.175-.754,1.274-1.475,2.564-2.2,3.858-.291.518-.913,1.335-1.342,2.128a3.121,3.121,0,0,0-.459,1.367.181.181,0,0,0,.2.2Zm4.365-4.514c.305-.516.782-1.328,1.193-2.083a7.268,7.268,0,0,0,.817-1.809c0-.062-.015-.1-.058-.1-.159,0-.657.734-.929,1.223-.391.7-.891,1.322-1.31,2-.283.458-.526.947-.766,1.428a5.092,5.092,0,0,0-.555,1.207c0,.053.02.085.066.085C509.954,73.84,511.057,72.114,511.2,71.884Zm4.517-2.523c1.1-1.123,2.191-2.252,3.3-3.357.958-.951,1.931-1.882,2.94-2.778,1.481-1.313,3-2.6,4.574-3.8.732-.558,1.532-1.037,2.234-1.632.148-.125.382-.355.382-.465,0-.039-.069-.062-.1-.062-.45,0-2.395,1.565-3.522,2.279a12.272,12.272,0,0,0-1.585,1.235c-.664.593-1.3,1.231-1.938,1.791-1.162,1.024-2.249,2.123-3.329,3.229-.831.852-1.657,1.708-2.508,2.542-.162.157-.6.528-.983.9-.369.355-.693.714-.693.89a.157.157,0,0,0,.168.173C514.905,70.308,515.449,69.631,515.714,69.361Zm9.355,1.7c.085-.007.214-.152.305-.326.369-.691.8-1.714,1.153-2.411.535-1.05,1.039-2.107,1.6-3.142a7.941,7.941,0,0,0,.851-2.171c0-.194-.062-.268-.128-.271-.168-.007-.451.437-.545.59a15.2,15.2,0,0,0-.872,1.773c-.474,1.062-1.007,2.067-1.405,3.163-.172.475-.463,1-.694,1.489a2.977,2.977,0,0,0-.353,1.148c0,.118.033.162.084.157Z" transform="translate(-424.851 -28.311)"></path>
      <path id="Path_50" data-name="Path 50" d="M546.317,81.47a7.425,7.425,0,0,1-1.51-.221,5.851,5.851,0,0,0-1.165-.085h-.222c-.238,0-.474,0-.711-.021a16.312,16.312,0,0,1-1.807-.215,4.986,4.986,0,0,1-1.934-.782,11.574,11.574,0,0,1-1.172-.925,10.6,10.6,0,0,1-1.349-1.477,5.28,5.28,0,0,1-.614-1.68c-.073-.251-.133-.625-.228-.973a1.56,1.56,0,0,0-.43-.82.138.138,0,0,0-.083-.037c-.1,0-.158.054-.291.054-.11,0-.146-.125-.152-.3-.006-.212.034-.494.034-.691a15.119,15.119,0,0,1,.04-2.173,14.413,14.413,0,0,1,1.137-3.8,31.232,31.232,0,0,1,2.024-3.714,43.858,43.858,0,0,1,2.771-3.767c.84-1.083,1.685-2.211,2.616-3.218.528-.571,1.084-1.1,1.656-1.609s1.167-1.009,1.765-1.511a4.242,4.242,0,0,1,1.7-1.1,4.357,4.357,0,0,1,.837-.058c.226,0,.462,0,.693,0,.566,0,.926-.086,1.7-.086a6.061,6.061,0,0,1,2.065.545,4.976,4.976,0,0,1,2.6,2.136,4.9,4.9,0,0,1,.627,2.267,2.706,2.706,0,0,1-.157.942,16,16,0,0,1-1.989,3.254,4.949,4.949,0,0,1-1.041,1.074c-.462.375-.8.849-1.229,1.256-.972.927-2.124,1.694-3.176,2.526a31.645,31.645,0,0,1-3.146,2.271A11.818,11.818,0,0,1,542.753,70a2.675,2.675,0,0,1-.617.078,5.246,5.246,0,0,1-.882-.11,7.661,7.661,0,0,0-1.174-.135,1.1,1.1,0,0,0-.5.088,1.393,1.393,0,0,0-.465.676c-.107.256-.192.521-.27.694a12.629,12.629,0,0,0-.754,2.005,2.6,2.6,0,0,0-.1.678,2.754,2.754,0,0,0,.1.706c.066.265.131.18.126.56,0,.213-.111.459-.111.684,0,.825,1.507,1.03,2.549,1.03a27.96,27.96,0,0,0,4.148-.449,28.3,28.3,0,0,0,5.2-1.436,42.452,42.452,0,0,0,5.621-2.643c1.568-.869,3.137-1.725,4.689-2.611.993-.567,1.98-1.146,2.957-1.751a5.39,5.39,0,0,0,1.166-.845c.075-.1.034-.258.089-.368a3.089,3.089,0,0,1,1.29-1.068c.176,0,.219.049.212.134a3.041,3.041,0,0,0-.089.442c-.007.2.093.218.093.344,0,.2-.862.516-.862.709,0,.085.117.1.21.1.142,0,.318-.049.463-.049.111,0,.233.031.233.143,0,.268-1.023.753-1.171.837a17.386,17.386,0,0,0-1.766,1.082,4.6,4.6,0,0,0-.977,1.038,2.874,2.874,0,0,1-.784.6c-.321.186-.661.35-.9.462a6.731,6.731,0,0,0-1.408.872c-.147.118-.646.381-.646.573,0,.118.129.16.26.16a1.827,1.827,0,0,0,.73-.3,1.5,1.5,0,0,1,.677-.269.448.448,0,0,1,.143.023c-.142.275-.748.567-1.043.726a6.555,6.555,0,0,0-1.148.7,1.407,1.407,0,0,0-.484.727c-.011.091.06.147.244.147a4.948,4.948,0,0,0,.824-.359,5.774,5.774,0,0,0,.826-.477,25.859,25.859,0,0,0,3.155-2.1c.231-.2,1.1-1.065,1.417-1.065.071,0,.112.045.112.152,0,.217-.371.631-.5.823a10.6,10.6,0,0,1-3.012,2.651c-.544.378-1.063.792-1.609,1.167-.53.366-1.12.607-1.631,1a25.72,25.72,0,0,1-3.235,2.119,24.559,24.559,0,0,1-3.451,1.579,21.106,21.106,0,0,1-2.349.736,8.881,8.881,0,0,1-2.04.262ZM535.5,73c.074,0,.163-.169.269-.554.118-.436.256-.854.4-1.265s.3-.82.446-1.238a1.954,1.954,0,0,0,.1-.584c0-.207-.056-.385-.244-.385-.264,0-.432.549-.483.676-.125.3-.3.743-.44,1.216a5.241,5.241,0,0,0-.258,1.435c0,.439.115.7.207.7Zm3.332-7.181c.363-.549.742-1.219,1.122-1.751.317-.445.636-.751.947-1.205.172-.251.353-.492.537-.729.587-.751,1.223-1.449,1.8-2.215a8.578,8.578,0,0,1,1.294-1.286c.247-.211.543-.614.812-.874.424-.412.781-.676.781-.852,0-.215-.078-.237-.16-.245-.176-.018-.463.282-.587.359-.186.112-.368.094-.629.305-.226.182-.453.385-.676.575s-.411.427-.634.617c-.255.217-.567.217-.809.389-.369.262-.272.569-.487.939a3.594,3.594,0,0,1-.8.869c-.1.064-.385.122-.453.186-.194.178-.13.283-.223.509a2.44,2.44,0,0,1-.494.651c-.336.412-.495.933-.833,1.352-.17.212-.406.391-.555.616a3.933,3.933,0,0,0-.3.809c-.15.368-.726.822-.726,1.245,0,.244.185.532.321.532C538.391,66.615,538.7,66.022,538.83,65.819Zm4.227-.36a16.877,16.877,0,0,0,1.745-1.041,22.607,22.607,0,0,1,1.972-1.344,5.231,5.231,0,0,0,.733-.429,1.671,1.671,0,0,0,.507-.758c.276-.522.859-.809,1.322-1.2.618-.52,1.179-1.107,1.756-1.67a20.4,20.4,0,0,0,1.515-1.621,3.673,3.673,0,0,0,.99-1.811c0-.3-.135-.4-.324-.4a2.871,2.871,0,0,0-1.183.543c-.627.419-1.255.831-1.891,1.237-.586.375-1.168.774-1.741,1.19-.607.442-1.2.9-1.777,1.373a19.742,19.742,0,0,0-3.066,3.071c-.413.524-.839,1.011-1.213,1.57a3.873,3.873,0,0,0-.7,1.527c0,.218.1.285.254.285C542.344,65.983,542.807,65.593,543.058,65.46Z" transform="translate(-419.192 -28.156)"></path>
      <path id="Path_51" data-name="Path 51" d="M557.647,81.363c-.075-.009-.139-.121-.22-.29s-.134-.21-.2-.214c-.094-.007-.2.079-.387.079-.279,0-.347-.419-.484-.591-.192-.239-.491-.118-.612-.455-.049-.134-.009-.3-.112-.416s-.2-.052-.329-.108c-.347-.152-.359-.624-.445-.962a6.452,6.452,0,0,1-.224-1.582,4.485,4.485,0,0,1,.127-1.062,11.52,11.52,0,0,1,.92-2.261c.353-.737.645-1.487,1.042-2.207.872-1.583,1.689-3.223,2.658-4.749.47-.741.946-1.49,1.456-2.207.449-.63.751-1.31,1.176-1.95a8.666,8.666,0,0,0,.43-.867c.21-.4.529-.775.78-1.159.484-.745.943-1.5,1.409-2.262.479-.778.958-1.557,1.412-2.349.213-.371.42-.742.62-1.119a5.07,5.07,0,0,0,.523-1.041,4.256,4.256,0,0,1,.241-1.1,7.05,7.05,0,0,1,.689-.913,4.584,4.584,0,0,1,.68-.814,3.79,3.79,0,0,1,1.023-.49,8.3,8.3,0,0,1,.975-.412,2.153,2.153,0,0,1,1.153.084,4.451,4.451,0,0,1,2.03,1.167,2.56,2.56,0,0,1,.786,1.737,2.027,2.027,0,0,1-.046.425,9.54,9.54,0,0,1-1.054,2.1,1.363,1.363,0,0,0-.156.472c0,.072.041.121.134.121a1.786,1.786,0,0,0,.466-.186c.223-.091.449-.178.675-.262a8.756,8.756,0,0,1,2.892-.706c.552,0,1.256.122,1.358.626.071.348.06.453.437.527s.872,0,1.2.228c.305.219.263.606.327.933a1.51,1.51,0,0,0,.534.813c.094.1.144.17.144.218,0,.118-.257.1-.415.264-.231.233-.25.766-.394,1.058a4.405,4.405,0,0,1-1.714,1.484,2.127,2.127,0,0,1-.983.451,2.941,2.941,0,0,1-1-.353c-.34-.137-.784-.213-.784-.767a4,4,0,0,0,.059-.5c0-.178-.057-.333-.247-.333a5.3,5.3,0,0,0-1.2.566,15.034,15.034,0,0,0-1.956,1.277c-1.368,1.089-2.925,1.876-4.262,3.015-.7.6-1.471,1.171-2.114,1.838a13.12,13.12,0,0,0-1.266,1.88c-1.033,1.545-2.136,3.048-3.1,4.642-.468.775-.852,1.595-1.29,2.387-.418.752-.886,1.474-1.3,2.227a8.859,8.859,0,0,0-.568,1.244,7.6,7.6,0,0,0-.327,1.211c-.051.278-.057.919-.4.919a.59.59,0,0,0-.238.009c-.2.095-.211.286-.314.463-.089.155-.157.217-.219.206Zm-.032-6.542c.433-.645.845-1.306,1.251-1.97.849-1.391,1.675-2.8,2.514-4.2q1.271-2.12,2.561-4.229c.461-.748.9-1.436,1.243-2.01a5.342,5.342,0,0,0,.768-1.564c.007-.1-.031-.155-.123-.155-.172,0-.608.611-1,1.2-.447.671-.915,1.329-1.37,2q-1.337,1.962-2.546,4c-.826,1.4-1.61,2.825-2.373,4.259q-.536,1.005-1.065,2.016c-.188.356-.38.711-.563,1.07a2.861,2.861,0,0,0-.419,1.016C556.974,76,557.322,75.258,557.615,74.821Zm1.769,1.457c.391-.655.711-1.351,1.084-2.016.779-1.392,1.6-2.757,2.411-4.13a5.383,5.383,0,0,0,.79-1.5.12.12,0,0,0-.133-.137c-.339,0-.864,1.134-.954,1.3-.1.192-.251.212-.4.354a3.335,3.335,0,0,0-.545.962,7.807,7.807,0,0,1-1.158,1.569,7.778,7.778,0,0,0-1.162,2.063,8.471,8.471,0,0,0-.8,2.132c0,.213.02.294.161.294C558.9,77.17,559.259,76.485,559.383,76.279Z" transform="translate(-415.519 -28.606)"></path>
      <path id="Path_52" data-name="Path 52" d="M578.307,81.183a2.477,2.477,0,0,1-.843-.148,4.216,4.216,0,0,1-2.441-1.779,6.539,6.539,0,0,0-.77-.973c-.382-.425-.266-.914-.427-1.434A4.916,4.916,0,0,1,573.4,75.6a.7.7,0,0,1,.019-.159c.056-.219.225-.277.348-.449a2.29,2.29,0,0,0,.292-.761,10.607,10.607,0,0,1,.466-1.54,5.482,5.482,0,0,1,.356-.568,3.228,3.228,0,0,0,.272-.749,4.908,4.908,0,0,1,.919-1.456,10.965,10.965,0,0,0,.9-1.16c.251-.407.241-.867.642-1.18a8.215,8.215,0,0,0,.708-.7c.1-.089.239-.129.269-.17.085-.12,0-.175.052-.271.1-.188.193-.187.335-.329a2,2,0,0,0,.286-.532c.121-.225.309-.414.434-.639.258-.465.318-.98.607-1.434a8.968,8.968,0,0,1,.99-1.336c.341-.365.746-.659,1.091-1.02.379-.394.62-.883.98-1.29a1.664,1.664,0,0,1,.511-.414c.18-.09.354-.071.49-.246.105-.135.089-.347.183-.494a1.741,1.741,0,0,1,.459-.392c.414-.321.729-.747,1.122-1.093a16.458,16.458,0,0,1,1.352-1.029c.914-.646,1.738-1.334,2.7-1.908a4.6,4.6,0,0,1,1.274-.738,5.626,5.626,0,0,1,1.218-.1c.244,0,.483,0,.7,0a2.7,2.7,0,0,1,1.489.533,4.3,4.3,0,0,1,1,.961c.245.33.245,1.136.674,1.136.16,0,.249-.062.4-.062.176,0,.217.116.223.251.007.185-.053.4.073.4s.316-.188.5-.188.226.1.246.233a1.278,1.278,0,0,0,.1.49c.153.263.4.217.636.217a.641.641,0,0,1,.324.067c.263.149.543.781.706,1.056a3.858,3.858,0,0,1,.544,1.868,1.931,1.931,0,0,1-.26,1.026,24.418,24.418,0,0,0-1.352,3.026c-.485,1.1-1.007,2.2-1.531,3.281-.4.831-.727,1.707-1.106,2.525-.334.722-.724,1.384-1.025,2.145-.269.676-.465,1.49-.733,2.163a3.938,3.938,0,0,0-.442,1.248c0,.4.3.464.826.464a6.623,6.623,0,0,0,2.205-.691,14.832,14.832,0,0,0,2.19-1.224c.741-.514,1.557-.885,2.323-1.358a3.645,3.645,0,0,1,.978-.54c.187-.045.375-.014.561-.054.135-.03.232-.148.38-.149-.014.234-.4.393-.4.63,0,.089.059.118.144.118a2.01,2.01,0,0,0,.772-.315,3.161,3.161,0,0,1,.987-.495c.085,0,.138.04.138.144,0,.141-.284.257-.284.45,0,.123.086.175.223.175a6.22,6.22,0,0,0,1.914-.792c.117-.076,1.055-.8,1.384-.8a.1.1,0,0,1,.114.115.44.44,0,0,1-.02.115c-.1.358-.68.755-.916,1.042-.336.407-.571.883-.9,1.3a21.108,21.108,0,0,1-2.726,2.574c-.9.781-1.87,1.567-2.833,2.272a13.454,13.454,0,0,1-2.97,1.455,15.438,15.438,0,0,1-1.6.527,4.909,4.909,0,0,1-1.248.278,1.231,1.231,0,0,1-.394-.062,13.692,13.692,0,0,1-1.242-.669,6.054,6.054,0,0,1-1.508-.84,3.328,3.328,0,0,1-.769-1.087,6.211,6.211,0,0,0-.83-1.449c-.33-.369-.491-.411-.618-.93a9.127,9.127,0,0,1-.412-2.159,6.793,6.793,0,0,1,.123-1.241,7.732,7.732,0,0,0,.342-1.224c0-.141-.049-.233-.183-.233-.168,0-.378.317-.479.439-.458.542-.935,1.07-1.4,1.605-.337.385-.665.79-1,1.19a14.356,14.356,0,0,1-1.418,1.514,8.857,8.857,0,0,0-.9.973,7.274,7.274,0,0,1-1.377,1.4,11.783,11.783,0,0,0-1.251,1.065,8.958,8.958,0,0,1-1.228,1,4.245,4.245,0,0,1-2.246.837Zm-.953-3.622a2.306,2.306,0,0,0,1.11-.477c.4-.352.651-.816,1.088-1.145s.747-.6,1.174-.965c.518-.446.906-1.025,1.4-1.5.367-.347.982-.424,1.243-.857.142-.237.143-.495.313-.728.193-.265.45-.5.665-.741a2.047,2.047,0,0,1,.53-.459,2.113,2.113,0,0,0,.286-.169c.1-.1.086-.279.172-.363a.349.349,0,0,1,.238-.115c.185,0,.355.137.5.137.092,0,.174-.059.243-.25a9.072,9.072,0,0,1,.753-1.63c.264-.434.771-1.35,1.252-1.35.056,0,.107.021.107.079,0,.2-.521.688-.623.8-.076.083-.347.348-.347.462,0,.033.022.053.078.053.263,0,.653-.552.839-.742.218-.224.569-.438.569-.774,0-.165-.105-.255-.095-.472a.972.972,0,0,1,.335-.613c.193-.194.431-.363.591-.513a17.6,17.6,0,0,0,1.4-1.54c.053-.063.5-.71.649-.71.031,0,.049.027.049.092,0,.09-.144.232-.185.284a10.056,10.056,0,0,0-.672.784.664.664,0,0,0-.109.272c0,.064.027.1.088.1a.532.532,0,0,0,.255-.094,4.056,4.056,0,0,0,.923-1,.764.764,0,0,0,.24-.474c0-.18-.185-.253-.2-.375-.011-.063.017-.147.118-.286a.591.591,0,0,1,.411-.214c.052,0,.066.03.059.073-.021.146-.272.462-.111.462.176,0,.447-.265.536-.354.1-.1.324-.334.324-.491,0-.236-.354-.142-.354-.341,0-.15.552-.521.631-.607a10.684,10.684,0,0,0,.716-.882,2.036,2.036,0,0,0,.339-.864,1.254,1.254,0,0,1,.278-.452.717.717,0,0,0,.157-.455c0-.124-.109-.168-.25-.174a3.465,3.465,0,0,0-.659.1,3.627,3.627,0,0,0-1.55.558c-.568.347-1.07.788-1.544,1.141-.509.384-1.049.748-1.578,1.127a13.2,13.2,0,0,0-1.98,1.651c-.44.466-.848.953-1.258,1.436-.479.566-.964,1.129-1.5,1.655-.5.487-.99.972-1.458,1.471a20.717,20.717,0,0,0-1.681,2.007c-.462.633-.94,1.256-1.411,1.886-.5.664-.991,1.335-1.447,2.028a15.2,15.2,0,0,0-1.707,3.342,3.165,3.165,0,0,0-.278.864c0,.233.141.315.337.31Zm13.612-10.925c.292-.317.7-.675.994-1.01a1.3,1.3,0,0,0,.4-.716c0-.076-.022-.11-.073-.11-.245,0-.9.742-.968.819a13.929,13.929,0,0,1-.991,1.108c-.2.18-.714.586-.714.935a.2.2,0,0,0,.184.2C590.157,67.865,590.852,66.761,590.966,66.635Z" transform="translate(-412.07 -27.942)"></path>
      <path id="Path_53" data-name="Path 53" d="M601.954,81.073c-.076-.159-.135-.21-.2-.214-.095-.007-.2.079-.389.079-.278,0-.346-.419-.483-.591-.192-.239-.491-.118-.612-.455-.047-.134-.008-.3-.114-.416s-.2-.052-.327-.108c-.347-.152-.359-.624-.445-.962a6.4,6.4,0,0,1-.225-1.582,4.371,4.371,0,0,1,.128-1.062,11.516,11.516,0,0,1,.919-2.261c.354-.737.646-1.487,1.042-2.207.872-1.583,1.689-3.223,2.658-4.749.47-.741.947-1.49,1.456-2.207.449-.63.751-1.31,1.177-1.95a8.67,8.67,0,0,0,.429-.867c.211-.4.529-.775.779-1.159.485-.745.945-1.5,1.41-2.262.481-.778.958-1.557,1.412-2.349.213-.371.419-.742.62-1.119a5.072,5.072,0,0,0,.524-1.041,4.255,4.255,0,0,1,.24-1.1,7.034,7.034,0,0,1,.689-.913,4.619,4.619,0,0,1,.678-.814,3.807,3.807,0,0,1,1.023-.49,8.412,8.412,0,0,1,.978-.412,2.144,2.144,0,0,1,1.151.084,4.45,4.45,0,0,1,2.031,1.167,2.56,2.56,0,0,1,.786,1.737,2.031,2.031,0,0,1-.046.425,9.547,9.547,0,0,1-1.055,2.1,1.381,1.381,0,0,0-.154.472c0,.072.041.121.134.121a1.778,1.778,0,0,0,.465-.186c.224-.091.449-.178.675-.262a8.763,8.763,0,0,1,2.892-.706c.553,0,1.256.122,1.359.626.07.348.059.453.437.527s.871,0,1.2.228c.305.219.263.606.328.933a1.5,1.5,0,0,0,.531.813c.095.1.146.17.146.218,0,.118-.257.1-.415.264-.231.233-.251.766-.394,1.058a4.4,4.4,0,0,1-1.714,1.484,2.122,2.122,0,0,1-.983.451,2.933,2.933,0,0,1-1-.353c-.34-.137-.784-.213-.784-.767a4.015,4.015,0,0,0,.059-.5c0-.178-.058-.333-.247-.333a5.3,5.3,0,0,0-1.2.566,15.043,15.043,0,0,0-1.956,1.277c-1.368,1.089-2.926,1.876-4.262,3.015-.7.6-1.471,1.171-2.114,1.838a13.322,13.322,0,0,0-1.267,1.88c-1.032,1.545-2.136,3.048-3.1,4.642-.469.775-.854,1.595-1.293,2.387-.417.752-.883,1.474-1.3,2.227a8.844,8.844,0,0,0-.567,1.244,7.6,7.6,0,0,0-.328,1.211c-.051.278-.057.919-.4.919a.591.591,0,0,0-.238.009c-.2.095-.209.286-.312.463-.09.155-.157.217-.22.206S602.034,81.242,601.954,81.073Zm.187-6.252c.433-.645.846-1.306,1.25-1.97.85-1.391,1.676-2.8,2.514-4.2q1.273-2.12,2.562-4.229c.461-.748.9-1.436,1.242-2.01a5.434,5.434,0,0,0,.771-1.564c.006-.1-.033-.155-.124-.155-.17,0-.607.611-1,1.2-.447.671-.915,1.329-1.371,2q-1.335,1.962-2.545,4c-.825,1.4-1.61,2.825-2.373,4.259q-.538,1.005-1.064,2.016c-.189.356-.381.711-.565,1.07a2.862,2.862,0,0,0-.419,1.016C601.5,76,601.848,75.258,602.141,74.821Zm1.767,1.457c.392-.655.713-1.351,1.086-2.016.779-1.392,1.6-2.757,2.411-4.13a5.383,5.383,0,0,0,.788-1.5c0-.085-.038-.137-.13-.137-.339,0-.865,1.134-.955,1.3-.1.192-.251.212-.406.354a3.393,3.393,0,0,0-.544.962A7.716,7.716,0,0,1,605,72.681a7.778,7.778,0,0,0-1.162,2.063,8.471,8.471,0,0,0-.8,2.132c0,.213.019.294.159.294C603.429,77.17,603.785,76.485,603.908,76.279Z" transform="translate(-407.335 -28.606)"></path>
      <path id="Path_54" data-name="Path 54" d="M610.576,111.478A6.286,6.286,0,0,1,606,108.27a5.589,5.589,0,0,1-.4-2.06c0-1.434.893-2.5,1.211-3.769a8.118,8.118,0,0,1,.142-1.108,12.065,12.065,0,0,1,.762-1.257,19.139,19.139,0,0,1,1.954-2.635c1.352-1.662,2.987-3.013,4.33-4.694a45.948,45.948,0,0,1,4.185-4.049,35.963,35.963,0,0,1,4.971-4.2c1.7-1.138,3.365-2.37,5.08-3.528a36.889,36.889,0,0,1,5.06-2.95,32.209,32.209,0,0,0,3.086-1.462,3.921,3.921,0,0,0,1.944-2.272c.2-.462,2.571-5.357,2.571-6.356,0-.115-.015-.178-.076-.178-.391,0-3.144,2.968-3.569,3.3-.574.443-1.191.854-1.756,1.29-.434.336-.765.813-1.183,1.194-1.3,1.189-2.7,2.235-4.092,3.318-.661.515-1.31,1.087-2,1.6-.759.565-1.906,1.814-2.82,2.069a2.1,2.1,0,0,1-.571.072,4.3,4.3,0,0,1-3.132-1.545,8.62,8.62,0,0,1-.786-2.329,5.374,5.374,0,0,1-.588-1.9,12.026,12.026,0,0,1,1.576-4.784c.054-.09.41-.721.835-1.424.612-1.01,1.363-2.164,1.558-2.059-.22.388-.955,1.751-1.656,3.148a16.3,16.3,0,0,0-1.464,3.44c0,.1.018.147.075.147.5,0,1.5-2.6,1.744-2.943.8-1.129,1.558-2.337,2.266-3.529a5.235,5.235,0,0,0,.613-1.278c.021-.092-.133-.136-.084-.309a3.961,3.961,0,0,1,.472-.762,2.589,2.589,0,0,0,.61-1.252,1.111,1.111,0,0,1,.042-.4c.262-.691,1.032-1.167,1.384-1.81.626-1.139,1.277-2.334,2.01-3.444.382-.582.8-1.144,1.189-1.721s.754-1.468,1.406-1.792a4.231,4.231,0,0,1,1.57-.348c.75,0,.878.434,1.284.854a2.743,2.743,0,0,1,.966,1.326,5.391,5.391,0,0,1,.2,1.245,1.247,1.247,0,0,1-.025.271c-.182.816-1.386,1.921-1.928,2.538a26.067,26.067,0,0,0-2.475,3.161c-.653,1.026-1.36,2.017-2.07,3.008-.895,1.251-1.795,2.5-2.6,3.819-.792,1.292-1.686,2.561-2.353,3.922-.1.2-.677.917-.677,1.344,0,.4.147.478.194.478a7.211,7.211,0,0,0,1.5-.9,27.429,27.429,0,0,0,3.255-2.579c1.015-.829,2.136-1.585,3.065-2.48,1.018-.98,2.187-1.785,3.228-2.738,1.345-1.232,2.62-2.518,3.934-3.78a19.906,19.906,0,0,0,1.842-1.8,9.982,9.982,0,0,0,1.443-1.765,6.215,6.215,0,0,0,.292-1.5c0-.186-.01-.574-.182-.574-.268,0-.5.73-.706.73-.1,0-.136-.063-.129-.161a2.279,2.279,0,0,1,.845-1.219,1.088,1.088,0,0,1,.571-.12,5.575,5.575,0,0,1,1.263.238c.535.13.974.491,1.319.491.142,0,.268.009.4.006a.344.344,0,0,1,.35.356c-.011.186-.1.234-.1.453,0,.252,1.012.484,1.247.7a2.637,2.637,0,0,1,.74,1.494c.011.479-.3.565-.64.631a1.1,1.1,0,0,0-.779.352,1.336,1.336,0,0,0-.107.653c0,.25.019.517.019.728a1.765,1.765,0,0,1-.012.225,25.582,25.582,0,0,1-1,3.89c-.505,1.653-1.127,3.264-1.72,4.884-.3.833-1.191,2.51-1.191,2.833,0,.349.375.6.357.768-.027.275-.569.27-.569.513,0,.223.23.333.488.335.278,0,.643-.062.936-.062s.515.1.515.318a.23.23,0,0,1-.253.246c-.1,0-.206-.028-.32-.025-.194,0-.528.2-.53.368,0,.233.663.336.881.475a.945.945,0,0,1,.425.656.278.278,0,0,1-.294.3c-.33,0-.6-.358-.887-.358a5,5,0,0,0-1.319.167c-1.5.423-2.1,1.337-2.907,2.606s-1.516,2.62-2.307,3.905q-1.307,2.124-2.739,4.154c-.862,1.229-1.757,2.437-2.674,3.631-.84,1.091-1.628,2.226-2.468,3.313-.893,1.155-1.623,2.4-2.607,3.486-1.18,1.3-2.337,2.651-3.536,3.956a41.74,41.74,0,0,1-4,3.9A23.821,23.821,0,0,1,615.6,110.3a9.5,9.5,0,0,1-2.453.852,13.213,13.213,0,0,1-2.572.326Zm2.507-3.42a14.674,14.674,0,0,0,3.581-2.507,29.333,29.333,0,0,0,3.373-3.1c.2-.251,1.352-1.582,2.473-2.933a17.206,17.206,0,0,0,2.28-3.038c0-.044-.012-.118-.051-.118-.266,0-.446.572-.62.572-.081,0-.127-.116-.121-.178.037-.412,1.36-.9,1.458-.961a1.575,1.575,0,0,0,.663-.759,2.522,2.522,0,0,1,.552-.832,14.36,14.36,0,0,0,1.832-2.286c.212-.339.854-1.045.854-1.345,0-.2-.194-.2-.194-.374,0-.711.887-1.347,1.28-1.854a27.237,27.237,0,0,0,1.574-2.456,14.558,14.558,0,0,0,1.326-2.1,1.017,1.017,0,0,0,.084-.354c0-.181-.11-.249-.275-.249a2.967,2.967,0,0,0-1.011.333c-.175.083-.93.691-1.185.691-.06,0-.1-.011-.1-.066a1.215,1.215,0,0,1,.294-.341c.653-.633,1.785-.748,2.433-1.422.2-.208.081-.407.224-.6.085-.116.7-.308.7-.55,0-.091-.069-.1-.185-.1a9.283,9.283,0,0,0-2.347,1.258,36.27,36.27,0,0,0-4.9,3.232c-1.216.885-2.559,1.674-3.674,2.672-.9.8-1.939,1.554-2.917,2.358a13.4,13.4,0,0,0-2.221,2.2,2.339,2.339,0,0,0-.487.991c0,.086.036.138.122.138a1.125,1.125,0,0,0,.505-.23c.619-.412,1.441-1.824,2.192-1.828-.071.474-1.171,1.281-1.544,1.657-.655.655-1.313,1.294-1.947,1.97-1.263,1.347-2.587,2.587-3.728,4.044s-2.338,2.9-3.358,4.446a5.6,5.6,0,0,0-.974,1.893c0,.655,1.67.729,2.183.729.875,0,1.681-1.007,2.324-1.509,1.076-.838,2.165-1.669,3.212-2.542.259-.217,1.467-1.512,2.617-2.7a13.377,13.377,0,0,1,2.263-2.1c.053,0,.065.032.065.094a10.364,10.364,0,0,1-2.049,2.706c-1.492,1.609-3.3,3.352-3.564,3.611a16.114,16.114,0,0,0-1.712,1.463,4.934,4.934,0,0,1-.9,1.171c-.333.268-1.773.946-1.773,1.378,0,.122.095.168.233.17A3.488,3.488,0,0,0,613.084,108.058Zm4.894-15.969c.56,0,4.122-3.413,4.53-3.7.935-.659,1.8-1.39,2.725-2.069.5-.365.973-.736,1.487-1.078.02-.013.64-.418.64-.59,0-.058-.037-.084-.1-.084a5.883,5.883,0,0,0-1.5.888c-.517.33-1.244.681-1.6.914a9.419,9.419,0,0,0-1.084.74,14.468,14.468,0,0,0-.93,1.189c-.313.341-4.253,3.317-4.253,3.714,0,.051.019.078.091.078Zm2.311,11.576c.481-.474.929-.865.964-1.088.011-.067-.017-.107-.1-.107-.35,0-.875.612-1.006.7-.514.335-1.153.928-1.153,1.361,0,.114.052.155.14.155C619.3,104.684,619.811,104.133,620.288,103.665Zm1.26-1.481c.277,0,1.07-1.005,1.121-1.073.367-.481.8-.922,1.2-1.378.23-.259.827-.662.979-.9.1-.161.047-.3.175-.528a6.451,6.451,0,0,1,.99-1.138c.554-.6,1-1.3,1.512-1.952,1.184-1.515,2.228-3.15,3.433-4.645.475-.588.85-1.229,1.279-1.853a14.586,14.586,0,0,0,1.434-2.176c0-.064-.019-.094-.05-.094-.233-.006-1.189,1.437-1.261,1.541-.484.723-1.11,1.336-1.583,2.059-.934,1.428-1.891,2.784-2.951,4.135-.99,1.262-2.072,2.426-3.045,3.684-.559.723-1.084,1.479-1.677,2.175-.392.459-1.719,1.371-1.719,1.912,0,.187.062.23.163.23Zm6.371-17.962a3.647,3.647,0,0,0,1.1-.55c.487-.318.935-.677.935-.787a.1.1,0,0,0-.114-.111,5.561,5.561,0,0,0-2.018,1.432.135.135,0,0,0,.1.018Zm4.337-2.778c0-.062-.041-.085-.109-.082-.3.014-1.094.55-1.094.753,0,.039.024.06.068.06C631.326,82.176,632.256,81.631,632.256,81.444Zm1.758-.993a.157.157,0,0,0-.09-.019,2.079,2.079,0,0,0-1.058.676C633.055,81.121,633.886,80.828,634.014,80.451Zm-.036,5.307c.262,0,.98-1.241.983-1.554,0-.044-.013-.114-.044-.114a3.63,3.63,0,0,0-1,1.583c0,.076.02.085.06.085Zm2.8-16.347c.484-.42,1.135-.739,1.574-1.181.9-.909,1.844-1.786,2.8-2.646a5.434,5.434,0,0,0,1.5-2.62c0-.276-.1-.592-.424-.592-.388,0-1.233,1.225-1.438,1.454-.086.1-1.558,1.146-1.558,1.47,0,.057.021.09.114.09.482,0,1.338-1.52,1.78-1.52.073,0,.1.027.1.076-.017.266-1.048,1.16-1.175,1.3a28.069,28.069,0,0,1-2.024,2.1c-.682.63-1.411,1.2-2.106,1.818-.2.176-.979.729-.979,1.062a.24.24,0,0,0,.259.225C635.791,70.455,636.321,69.8,636.775,69.411Z" transform="translate(-406.151 -27.894)"></path>
    </g>
    <g id="Text" transform="translate(685 220)">
      <text id="_550_kms_Time:_12-13_hours" data-name="550 kms | Time: 12-13 hours" transform="translate(0 22)" fill="#f1592b" font-size="24" font-family="WorkSans-SemiBold, Work Sans" font-weight="600"><tspan x="0" y="0">550 kms | Time: 12-13 hours</tspan></text>
      <text id="Day_1:_Pick_up_at_Delhi" data-name="Day 1: Pick up at Delhi" transform="translate(0 70)" fill="#1cbbb4" font-size="42" font-family="WorkSans-SemiBold, Work Sans" font-weight="600"><tspan x="0" y="0">Day 1: Pick up at Delhi</tspan></text>
      <text id="You_will_be_meeting_our_representative_in_Delhi_at_the_pickup_point._We_will_travel_overnight_in_an_AC_Volvo_from_Delhi_to_Manali." data-name="You will be meeting our representative in Delhi at the pickup point. We will travel overnight in an AC Volvo from Delhi to Manali." transform="translate(0 90)" font-size="33" font-family="WorkSans-Medium, Work Sans" font-weight="500"><tspan x="0" y="31">You will be meeting our </tspan><tspan x="0" y="70">representative in Delhi at the </tspan><tspan x="0" y="109">pickup point. We will travel </tspan><tspan x="0" y="148">overnight in an AC Volvo from </tspan><tspan x="0" y="187">Delhi to Manali.</tspan></text>
      <g id="Group_11" data-name="Group 11" transform="translate(0 292)">
        <text id="Meals_:_Night_:" data-name="Meals :
Night  :" transform="translate(0 22)" font-size="24" font-family="WorkSans-SemiBold, Work Sans" font-weight="600"><tspan x="0" y="0">Meals :</tspan><tspan x="0" y="28" xml:space="preserve">Night  :</tspan></text>
        <text id="Nil_Overnight_Journey_by_Volvo" data-name="Nil
Overnight Journey by Volvo" transform="translate(111 22)" fill="#f1592b" font-size="24" font-family="WorkSans-SemiBold, Work Sans" font-weight="600"><tspan x="0" y="0">Nil</tspan><tspan x="0" y="28">Overnight Journey by Volvo</tspan></text>
      </g>
    </g>
    <g id="Text-2" data-name="Text" transform="translate(698 4271)">
      <text id="_250_kms_07-09_hours" data-name="250 kms | 07-09 hours" transform="translate(0 22)" fill="#f1592b" font-size="24" font-family="WorkSans-SemiBold, Work Sans" font-weight="600"><tspan x="0" y="0">250 kms | 07-09 hours</tspan></text>
      <text id="Day_9:_Leh_to_Sarchu" data-name="Day 9: Leh to Sarchu" transform="translate(0 70)" fill="#1cbbb4" font-size="42" font-family="WorkSans-SemiBold, Work Sans" font-weight="600"><tspan x="0" y="0">Day 9: Leh to Sarchu</tspan></text>
      <g id="Group_11-2" data-name="Group 11" transform="translate(0 250)">
        <text id="Meals_:_Night_:-2" data-name="Meals :
Night  :" transform="translate(0 22)" font-size="24" font-family="WorkSans-SemiBold, Work Sans" font-weight="600"><tspan x="0" y="0">Meals :</tspan><tspan x="0" y="28" xml:space="preserve">Night  :</tspan></text>
        <text id="Breakfast_and_Dinner_Stay_at_Camps_in_Sarchu" data-name="Breakfast and Dinner
Stay at Camps in Sarchu" transform="translate(111 22)" fill="#f1592b" font-size="24" font-family="WorkSans-SemiBold, Work Sans" font-weight="600"><tspan x="0" y="0">Breakfast and Dinner</tspan><tspan x="0" y="28">Stay at Camps in Sarchu</tspan></text>
      </g>
      <text id="We_will_return_to_Sarchu_breakfast_and_continue_on_the_Leh_-_Manali_highway._Overnight_accommodation_at_Sarchu." data-name="We will return to Sarchu, breakfast and continue on the Leh - Manali highway. Overnight accommodation at Sarchu." transform="translate(0 90)" font-size="33" font-family="WorkSans-Medium, Work Sans" font-weight="500"><tspan x="0" y="31">We will return to Sarchu, </tspan><tspan x="0" y="70">breakfast and continue on the </tspan><tspan x="0" y="109">Leh - Manali highway. Overnight </tspan><tspan x="0" y="148">accommodation at Sarchu.</tspan></text>
    </g>
    <rect id="Leh_Bike_Trip_1_" data-name="Leh Bike Trip (1)" width="685" height="553" transform="translate(0 118)" fill="url(#pattern)"></rect>
    <rect id="Leh_Bike_Trip_2_" data-name="Leh Bike Trip (2)" width="685" height="553" transform="translate(595 604)" fill="url(#pattern-2)"></rect>
    <rect id="Leh_Bike_Trip_3_" data-name="Leh Bike Trip (3)" width="685" height="552" transform="translate(0 1092)" fill="url(#pattern-3)"></rect>
    <rect id="Leh_Bike_Trip_4_" data-name="Leh Bike Trip (4)" width="685" height="552" transform="translate(595 1578)" fill="url(#pattern-4)"></rect>
    <rect id="Leh_Bike_Trip_5_" data-name="Leh Bike Trip (5)" width="703" height="567" transform="translate(0 2083)" fill="url(#pattern-5)"></rect>
    <rect id="Leh_Bike_Trip_6_" data-name="Leh Bike Trip (6)" width="713" height="575" transform="translate(567 2585)" fill="url(#pattern-6)"></rect>
    <rect id="Leh_Bike_Trip_7_" data-name="Leh Bike Trip (7)" width="682" height="550" transform="translate(0 3160)" fill="url(#pattern-7)"></rect>
    <rect id="Leh_Bike_Trip_8_" data-name="Leh Bike Trip (8)" width="685" height="552" transform="translate(595 3639)" fill="url(#pattern-8)"></rect>
    <rect id="Leh_Bike_Trip_9_" data-name="Leh Bike Trip (9)" width="686" height="553" transform="translate(0 4165)" fill="url(#pattern-9)"></rect>
    <rect id="Leh_Bike_Trip_10_" data-name="Leh Bike Trip (10)" width="685" height="553" transform="translate(595 4635)" fill="url(#pattern-10)"></rect>
    <rect id="Leh_Bike_Trip_11_" data-name="Leh Bike Trip (11)" width="685" height="552" transform="translate(0 5123)" fill="url(#pattern-11)"></rect>
    <g id="Text-3" data-name="Text" transform="translate(39 721)">
      <text id="morning" transform="translate(0 22)" fill="#f1592b" font-size="24" font-family="WorkSans-SemiBold, Work Sans" font-weight="600"><tspan x="0" y="0">morning</tspan></text>
      <text id="Day_2:_Stay_in_Manali_" data-name="Day 2: Stay in Manali
" transform="translate(0 70)" fill="#1cbbb4" font-size="42" font-family="WorkSans-SemiBold, Work Sans" font-weight="600"><tspan x="0" y="0">Day 2: Stay in Manali</tspan><tspan x="0" y="49"></tspan></text>
      <text id="Upon_arrival_in_Manali_we_will_check_in_to_our_hotels_and_gear_up_for_exploring_the_beautiful_city_on_your_own._" data-name="Upon arrival in Manali, we will check in to our hotels and gear up for exploring the beautiful city on your own. " transform="translate(0 91)" font-size="33" font-family="WorkSans-Medium, Work Sans" font-weight="500"><tspan x="0" y="31">Upon arrival in Manali, we will check </tspan><tspan x="0" y="70">in to our hotels and gear up for </tspan><tspan x="0" y="109">exploring the beautiful city on your </tspan><tspan x="0" y="148">own. </tspan></text>
      <g id="Group_11-3" data-name="Group 11" transform="translate(0 254)">
        <text id="Meals_:_Night_:-3" data-name="Meals :
Night  :" transform="translate(0 22)" font-size="24" font-family="WorkSans-SemiBold, Work Sans" font-weight="600"><tspan x="0" y="0">Meals :</tspan><tspan x="0" y="28" xml:space="preserve">Night  :</tspan></text>
        <text id="Breakfast_and_Dinner_Stay_at_Hotel_in_Manali" data-name="Breakfast and Dinner
Stay at Hotel in Manali" transform="translate(111 22)" fill="#f1592b" font-size="24" font-family="WorkSans-SemiBold, Work Sans" font-weight="600"><tspan x="0" y="0">Breakfast and Dinner</tspan><tspan x="0" y="28">Stay at Hotel in Manali</tspan></text>
      </g>
    </g>
    <g id="Text-4" data-name="Text" transform="translate(687 1222)">
      <text id="_150_kms_4-5_hours" data-name="150 kms | 4-5 hours" transform="translate(0 22)" fill="#f1592b" font-size="24" font-family="WorkSans-SemiBold, Work Sans" font-weight="600"><tspan x="0" y="0">150 kms | 4-5 hours</tspan></text>
      <text id="Day_3:_Manali_To_Jispa_" data-name="Day 3: Manali To Jispa
" transform="translate(0 70)" fill="#1cbbb4" font-size="42" font-family="WorkSans-SemiBold, Work Sans" font-weight="600"><tspan x="0" y="0">Day 3: Manali To Jispa</tspan><tspan x="0" y="49"></tspan></text>
      <text id="After_Breakfast_we_will_start_our_Ladakh_bike_trip_journey_We_will_ride_across_the_Rohtang_Pass_at_13_058ft._" data-name="After Breakfast, we will start 
our Ladakh bike trip journey! 
We will ride across the Rohtang
Pass at 13,058ft. " transform="translate(0 91)" font-size="33" font-family="WorkSans-Medium, Work Sans" font-weight="500"><tspan x="0" y="31">After Breakfast, we will start </tspan><tspan x="0" y="70">our Ladakh bike trip journey! </tspan><tspan x="0" y="109">We will ride across the Rohtang</tspan><tspan x="0" y="148">Pass at 13,058ft. </tspan></text>
      <g id="Group_11-4" data-name="Group 11" transform="translate(0 253.363)">
        <text id="Meals_:_Night_:-4" data-name="Meals :
Night  :" transform="translate(0 21.637)" font-size="24" font-family="WorkSans-SemiBold, Work Sans" font-weight="600"><tspan x="0" y="0">Meals :</tspan><tspan x="0" y="28" xml:space="preserve">Night  :</tspan></text>
        <text id="Breakfast_and_Dinner_Stay_at_Hotel_in_Jispa" data-name="Breakfast and Dinner
Stay at Hotel in Jispa" transform="translate(111 21.637)" fill="#f1592b" font-size="24" font-family="WorkSans-SemiBold, Work Sans" font-weight="600"><tspan x="0" y="0">Breakfast and Dinner</tspan><tspan x="0" y="28">Stay at Hotel in Jispa</tspan></text>
      </g>
    </g>
    <g id="Text-5" data-name="Text" transform="translate(33 1679)">
      <text id="_334_kms_11-12_hours" data-name="334 kms |  11-12 hours" transform="translate(0 22)" fill="#f1592b" font-size="24" font-family="WorkSans-SemiBold, Work Sans" font-weight="600"><tspan x="0" y="0" xml:space="preserve">334 kms |  11-12 hours</tspan></text>
      <text id="Day_4:_Jispa_to_Leh_" data-name="Day 4: Jispa to Leh
" transform="translate(0 70)" fill="#1cbbb4" font-size="42" font-family="WorkSans-SemiBold, Work Sans" font-weight="600"><tspan x="0" y="0">Day 4: Jispa to Leh</tspan><tspan x="0" y="49"></tspan></text>
      <text id="After_breakfast_we_will_start_our_ride_towards_Leh_through_the_three_legendary_passes_-_Tanglang_la_Naki_la_and_Lachung_la._" data-name="After breakfast, we will start 
our ride towards Leh through
the three legendary passes - 
Tanglang la, Naki la, and
Lachung la.
" transform="translate(0 91)" font-size="33" font-family="WorkSans-Medium, Work Sans" font-weight="500"><tspan x="0" y="31">After breakfast, we will start </tspan><tspan x="0" y="70">our ride towards Leh through</tspan><tspan x="0" y="109">the three legendary passes - </tspan><tspan x="0" y="148">Tanglang la, Naki la, and</tspan><tspan x="0" y="187">Lachung la.</tspan></text>
      <g id="Group_11-5" data-name="Group 11" transform="translate(0 293)">
        <text id="Meals_:_Night_:-5" data-name="Meals :
Night  :" transform="translate(0 22)" font-size="24" font-family="WorkSans-SemiBold, Work Sans" font-weight="600"><tspan x="0" y="0">Meals :</tspan><tspan x="0" y="28" xml:space="preserve">Night  :</tspan></text>
        <text id="Breakfast_and_Dinner_Stay_at_Hotel_in_Leh" data-name="Breakfast and Dinner
Stay at Hotel in Leh" transform="translate(111 22)" fill="#f1592b" font-size="24" font-family="WorkSans-SemiBold, Work Sans" font-weight="600"><tspan x="0" y="0">Breakfast and Dinner</tspan><tspan x="0" y="28">Stay at Hotel in Leh</tspan></text>
      </g>
    </g>
    <g id="Text-6" data-name="Text" transform="translate(33 2669)">
      <text id="_180_kms_6-7_hours_" data-name="180 kms | 6-7 hours " transform="translate(0 22)" fill="#f1592b" font-size="24" font-family="WorkSans-SemiBold, Work Sans" font-weight="600"><tspan x="0" y="0">180 kms | 6-7 hours </tspan></text>
      <text id="Day_6:_Leh_to_Nubra_Valley" data-name="Day 6: Leh to Nubra 
Valley" transform="translate(0 70)" fill="#1cbbb4" font-size="42" font-family="WorkSans-SemiBold, Work Sans" font-weight="600"><tspan x="0" y="0">Day 6: Leh to Nubra </tspan><tspan x="0" y="49">Valley</tspan></text>
      <text id="Today_we_will_ride_past_the_highest_accessible_motorable_pass_in_the_world_-_Khardungla_La_at_18_380_ft._and_visit_Diskit_Monastery._" data-name="Today, we will ride past the 
highest accessible motorable 
pass in the world - Khardungla
La at 18,380 ft. and visit Diskit
Monastery.
" transform="translate(0 139)" font-size="33" font-family="WorkSans-Medium, Work Sans" font-weight="500"><tspan x="0" y="31">Today, we will ride past the </tspan><tspan x="0" y="70">highest accessible motorable </tspan><tspan x="0" y="109">pass in the world - Khardungla</tspan><tspan x="0" y="148">La at 18,380 ft. and visit Diskit</tspan><tspan x="0" y="187">Monastery.</tspan></text>
      <g id="Group_11-6" data-name="Group 11" transform="translate(0 341)">
        <text id="Meals_:_Night_:-6" data-name="Meals :
Night  :" transform="translate(0 22)" font-size="24" font-family="WorkSans-SemiBold, Work Sans" font-weight="600"><tspan x="0" y="0">Meals :</tspan><tspan x="0" y="28" xml:space="preserve">Night  :</tspan></text>
        <text id="Breakfast_and_Dinner_Stay_at_Camps_in_Nubra" data-name="Breakfast and Dinner
Stay at Camps in Nubra" transform="translate(111 22)" fill="#f1592b" font-size="24" font-family="WorkSans-SemiBold, Work Sans" font-weight="600"><tspan x="0" y="0">Breakfast and Dinner</tspan><tspan x="0" y="28">Stay at Camps in Nubra</tspan></text>
      </g>
    </g>
    <g id="Text-7" data-name="Text" transform="translate(697 3200)">
      <text id="_200_Kms_6-7_hours_ride" data-name="200 Kms | 6-7 hours ride" transform="translate(0 22)" fill="#f1592b" font-size="24" font-family="WorkSans-SemiBold, Work Sans" font-weight="600"><tspan x="0" y="0">200 Kms | 6-7 hours ride</tspan></text>
      <text id="Day_7:_Nubra_Valley_to_Pangong_Tso" data-name="Day 7: Nubra Valley 
to Pangong Tso" transform="translate(0 70)" fill="#1cbbb4" font-size="42" font-family="WorkSans-SemiBold, Work Sans" font-weight="600"><tspan x="0" y="0">Day 7: Nubra Valley </tspan><tspan x="0" y="49">to Pangong Tso</tspan></text>
      <text id="We_begin_our_ride_towards_the_Pangong_Tso_post_breakfast_taking_the_unexplored_shyok_village_route._We_continue_towards_our_campsite_near_the_lake." data-name="We begin our ride towards the Pangong Tso post breakfast taking the unexplored shyok village route. We continue towards our campsite near the lake." transform="translate(0 139)" font-size="33" font-family="WorkSans-Medium, Work Sans" font-weight="500"><tspan x="0" y="31">We begin our ride towards the </tspan><tspan x="0" y="70">Pangong Tso post breakfast taking </tspan><tspan x="0" y="109">the unexplored shyok village </tspan><tspan x="0" y="148">route. We continue towards our </tspan><tspan x="0" y="187">campsite near the lake.</tspan></text>
      <g id="Group_11-7" data-name="Group 11" transform="translate(0 341)">
        <text id="Meals_:_Night_:-7" data-name="Meals :
Night  :" transform="translate(0 22)" font-size="24" font-family="WorkSans-SemiBold, Work Sans" font-weight="600"><tspan x="0" y="0">Meals :</tspan><tspan x="0" y="28" xml:space="preserve">Night  :</tspan></text>
        <text id="Breakfast_and_Dinner_Stay_at_Camps_near_the_Lake." data-name="Breakfast and Dinner
Stay at Camps near the Lake." transform="translate(111 22)" fill="#f1592b" font-size="24" font-family="WorkSans-SemiBold, Work Sans" font-weight="600"><tspan x="0" y="0">Breakfast and Dinner</tspan><tspan x="0" y="28">Stay at Camps near the Lake.</tspan></text>
      </g>
    </g>
    <g id="Text-8" data-name="Text" transform="translate(33 3737)">
      <text id="_225_Kms_6-7_hours_ride" data-name="225 Kms | 6-7 hours ride" transform="translate(0 22)" fill="#f1592b" font-size="24" font-family="WorkSans-SemiBold, Work Sans" font-weight="600"><tspan x="0" y="0">225 Kms | 6-7 hours ride</tspan></text>
      <text id="Day_8:_Pangong_Tso_to_Leh" data-name="Day 8: Pangong Tso 
to Leh" transform="translate(0 70)" fill="#1cbbb4" font-size="42" font-family="WorkSans-SemiBold, Work Sans" font-weight="600"><tspan x="0" y="0">Day 8: Pangong Tso </tspan><tspan x="0" y="49">to Leh</tspan></text>
      <text id="After_breakfast_we_breathe_in_the_beautiful_view_of_the_majestic_Pangong_Lake_as_we_ride_back_towards_leh." data-name="After breakfast, we breathe in the beautiful view of the majestic Pangong Lake as we ride back towards leh." transform="translate(0 139)" font-size="33" font-family="WorkSans-Medium, Work Sans" font-weight="500"><tspan x="0" y="31">After breakfast, we breathe in the </tspan><tspan x="0" y="70">beautiful view of the majestic </tspan><tspan x="0" y="109">Pangong Lake as we ride back </tspan><tspan x="0" y="148">towards leh.</tspan></text>
      <g id="Group_11-8" data-name="Group 11" transform="translate(0 301)">
        <text id="Meals_:_Night_:-8" data-name="Meals :
Night  :" transform="translate(0 22)" font-size="24" font-family="WorkSans-SemiBold, Work Sans" font-weight="600"><tspan x="0" y="0">Meals :</tspan><tspan x="0" y="28" xml:space="preserve">Night  :</tspan></text>
        <text id="Breakfast_and_Dinner_Stay_at_Hotel_in_Leh-2" data-name="Breakfast and Dinner
Stay at Hotel in Leh" transform="translate(111 22)" fill="#f1592b" font-size="24" font-family="WorkSans-SemiBold, Work Sans" font-weight="600"><tspan x="0" y="0">Breakfast and Dinner</tspan><tspan x="0" y="28">Stay at Hotel in Leh</tspan></text>
      </g>
    </g>
    <g id="Text-9" data-name="Text" transform="translate(33 4738)">
      <text id="_177_kms_05-06_hours_" data-name="177 kms | 05-06 hours
" transform="translate(0 22)" fill="#f1592b" font-size="24" font-family="WorkSans-SemiBold, Work Sans" font-weight="600"><tspan x="0" y="0">177 kms | 05-06 hours</tspan><tspan x="0" y="28"></tspan></text>
      <text id="Day_10:_Sarchu_to_Manali" data-name="Day 10: Sarchu to Manali" transform="translate(0 70)" fill="#1cbbb4" font-size="42" font-family="WorkSans-SemiBold, Work Sans" font-weight="600"><tspan x="0" y="0">Day 10: Sarchu to Manali</tspan></text>
      <text id="Get_ready_for_the_last_day_of_this_memorable_bike_trip._After_breakfast_we_will_proceed_towards_Manali_where_we_will_drop_off_our_bikes_at_the_hotel." data-name="Get  ready for the last day of 
this memorable bike trip. After 
breakfast, we will proceed 
towards Manali, where we will 
drop off our bikes at the hotel." transform="translate(0 90)" font-size="33" font-family="WorkSans-Medium, Work Sans" font-weight="500"><tspan x="0" y="31" xml:space="preserve">Get  ready for the last day of </tspan><tspan x="0" y="70">this memorable bike trip. After </tspan><tspan x="0" y="109">breakfast, we will proceed </tspan><tspan x="0" y="148">towards Manali, where we will </tspan><tspan x="0" y="187">drop off our bikes at the hotel.</tspan></text>
      <g id="Group_11-9" data-name="Group 11" transform="translate(0 292)">
        <text id="Meals_:_Night_:-9" data-name="Meals :
Night  :" transform="translate(0 22)" font-size="24" font-family="WorkSans-SemiBold, Work Sans" font-weight="600"><tspan x="0" y="0">Meals :</tspan><tspan x="0" y="28" xml:space="preserve">Night  :</tspan></text>
        <text id="Breakfast_and_Dinner_Stay_at_Hotel_in_Manali-2" data-name="Breakfast and Dinner
Stay at Hotel in Manali" transform="translate(111 22)" fill="#f1592b" font-size="24" font-family="WorkSans-SemiBold, Work Sans" font-weight="600"><tspan x="0" y="0">Breakfast and Dinner</tspan><tspan x="0" y="28">Stay at Hotel in Manali</tspan></text>
      </g>
    </g>
    <g id="Text-10" data-name="Text" transform="translate(700 2174)">
      <text id="morning-2" data-name="morning" transform="translate(0 22)" fill="#f1592b" font-size="24" font-family="WorkSans-SemiBold, Work Sans" font-weight="600"><tspan x="0" y="0">morning</tspan></text>
      <text id="Day_5:_Exploring_Leh" data-name="Day 5: Exploring Leh" transform="translate(0 70)" fill="#1cbbb4" font-size="42" font-family="WorkSans-SemiBold, Work Sans" font-weight="600"><tspan x="0" y="0">Day 5: Exploring Leh</tspan></text>
      <text id="After_breakfast_we_leave_to_explore_all_the_places_in_and_around_leh._Come_by_evening_we_d_have_our_dinner_and_retreat_for_the_night_to_prepare_for_tomorrow_s_exciting_ride." data-name="After breakfast, we leave to explore all the places in and around leh. Come by evening, we'd have our dinner and retreat for the night to prepare for tomorrow's exciting ride." transform="translate(0 90)" font-size="33" font-family="WorkSans-Medium, Work Sans" font-weight="500"><tspan x="0" y="31">After breakfast, we leave to </tspan><tspan x="0" y="70">explore all the places in and </tspan><tspan x="0" y="109">around leh. Come by evening, </tspan><tspan x="0" y="148">we'd have our dinner and retreat </tspan><tspan x="0" y="187">for the night to prepare for </tspan><tspan x="0" y="226">tomorrow's exciting ride.</tspan></text>
      <g id="Group_11-10" data-name="Group 11" transform="translate(0 330)">
        <text id="Meals_:_Night_:-10" data-name="Meals :
Night  :" transform="translate(0 22)" font-size="24" font-family="WorkSans-SemiBold, Work Sans" font-weight="600"><tspan x="0" y="0">Meals :</tspan><tspan x="0" y="28" xml:space="preserve">Night  :</tspan></text>
        <text id="Breakfast_and_Dinner_Stay_at_Hotel_in_Leh-3" data-name="Breakfast and Dinner
Stay at Hotel in Leh" transform="translate(111 22)" fill="#f1592b" font-size="24" font-family="WorkSans-SemiBold, Work Sans" font-weight="600"><tspan x="0" y="0">Breakfast and Dinner</tspan><tspan x="0" y="28">Stay at Hotel in Leh</tspan></text>
      </g>
    </g>
    <g id="Text-11" data-name="Text" transform="translate(698 5268)">
      <text id="evening_06:00_pm_" data-name="evening 06:00 pm
" transform="translate(0 22)" fill="#f1592b" font-size="24" font-family="WorkSans-SemiBold, Work Sans" font-weight="600"><tspan x="0" y="0">evening 06:00 pm</tspan><tspan x="0" y="28"></tspan></text>
      <text id="Day_11:_Departure" data-name="Day 11: Departure" transform="translate(0 70)" fill="#1cbbb4" font-size="42" font-family="WorkSans-SemiBold, Work Sans" font-weight="600"><tspan x="0" y="0">Day 11: Departure</tspan></text>
      <text id="After_breakfast_checkout_from_the_hotel_and_leave_for_Delhi_in_an_AC_Volvo." data-name="After breakfast, checkout from the hotel and leave for Delhi in an AC Volvo." transform="translate(0 90)" font-size="33" font-family="WorkSans-Medium, Work Sans" font-weight="500"><tspan x="0" y="31">After breakfast, checkout from </tspan><tspan x="0" y="70">the hotel and leave for Delhi in </tspan><tspan x="0" y="109">an AC Volvo.</tspan></text>
      <g id="Group_11-11" data-name="Group 11" transform="translate(0 215)">
        <text id="Meals_:_Night_:-11" data-name="Meals :
Night  :" transform="translate(0 22)" font-size="24" font-family="WorkSans-SemiBold, Work Sans" font-weight="600"><tspan x="0" y="0">Meals :</tspan><tspan x="0" y="28" xml:space="preserve">Night  :</tspan></text>
        <text id="Breakfast_Nil" data-name="Breakfast 
Nil" transform="translate(111 22)" fill="#f1592b" font-size="24" font-family="WorkSans-SemiBold, Work Sans" font-weight="600"><tspan x="0" y="0">Breakfast </tspan><tspan x="0" y="28">Nil</tspan></text>
      </g>
    </g>
  </g>
</svg>